HIERARCHY
ROOT Hips
{
	OFFSET 0.00000 0.00000 0.00000
	CHANNELS 6 Xposition Yposition Zposition Zrotation Yrotation Xrotation 
	JOINT LHipJoint
	{
		OFFSET 0 0 0
		CHANNELS 3 Zrotation Yrotation Xrotation
		JOINT LeftUpLeg
		{
			OFFSET 1.61328 -1.70571 0.84375
			CHANNELS 3 Zrotation Yrotation Xrotation
			JOINT LeftLeg
			{
				OFFSET 2.32400 -6.38513 0.00000
				CHANNELS 3 Zrotation Yrotation Xrotation
				JOINT LeftFoot
				{
					OFFSET 2.58843 -7.11166 0.00000
					CHANNELS 3 Zrotation Yrotation Xrotation
					JOINT LeftToeBase
					{
						OFFSET 0.17200 -0.47257 2.47970
						CHANNELS 3 Zrotation Yrotation Xrotation
						End Site
						{
							OFFSET 0.00000 -0.00000 1.26912
						}
					}
				}
			}
		}
	}
	JOINT RHipJoint
	{
		OFFSET 0 0 0
		CHANNELS 3 Zrotation Yrotation Xrotation
		JOINT RightUpLeg
		{
			OFFSET -1.49930 -1.70570 0.84375
			CHANNELS 3 Zrotation Yrotation Xrotation
			JOINT RightLeg
			{
				OFFSET -2.30458 -6.33178 0.00000
				CHANNELS 3 Zrotation Yrotation Xrotation
				JOINT RightFoot
				{
					OFFSET -2.62261 -7.20556 0.00000
					CHANNELS 3 Zrotation Yrotation Xrotation
					JOINT RightToeBase
					{
						OFFSET -0.18709 -0.51403 2.51340
						CHANNELS 3 Zrotation Yrotation Xrotation
						End Site
						{
							OFFSET -0.00000 -0.00000 1.28858
						}
					}
				}
			}
		}
	}
	JOINT LowerBack
	{
		OFFSET 0 0 0
		CHANNELS 3 Zrotation Yrotation Xrotation
		JOINT Spine
		{
			OFFSET -0.03798 2.19274 -0.19881
			CHANNELS 3 Zrotation Yrotation Xrotation
			JOINT Spine1
			{
				OFFSET -0.00024 2.19460 0.05248
				CHANNELS 3 Zrotation Yrotation Xrotation
				JOINT Neck
				{
					OFFSET 0 0 0
					CHANNELS 3 Zrotation Yrotation Xrotation
					JOINT Neck1
					{
						OFFSET -0.00746 1.82323 0.17286
						CHANNELS 3 Zrotation Yrotation Xrotation
						JOINT Head
						{
							OFFSET 0.11826 1.82121 -0.27841
							CHANNELS 3 Zrotation Yrotation Xrotation
							End Site
							{
								OFFSET 0.03496 1.85543 -0.11495
							}
						}
					}
				}
				JOINT LeftShoulder
				{
					OFFSET 0 0 0
					CHANNELS 3 Zrotation Yrotation Xrotation
					JOINT LeftArm
					{
						OFFSET 3.71926 0.78840 0.25473
						CHANNELS 3 Zrotation Yrotation Xrotation
						JOINT LeftForeArm
						{
							OFFSET 5.37587 -0.00000 0.00000
							CHANNELS 3 Zrotation Yrotation Xrotation
							JOINT LeftHand
							{
								OFFSET 3.35977 -0.00000 0.00000
								CHANNELS 3 Zrotation Yrotation Xrotation
								JOINT LeftFingerBase
								{
									OFFSET 0 0 0
									CHANNELS 3 Zrotation Yrotation Xrotation
									JOINT LeftHandIndex1
									{
										OFFSET 0.56186 -0.00000 0.00000
										CHANNELS 3 Zrotation Yrotation Xrotation
										End Site
										{
											OFFSET 0.45299 -0.00000 0.00000
										}
									}
								}
								JOINT LThumb
								{
									OFFSET 0 0 0
									CHANNELS 3 Zrotation Yrotation Xrotation
									End Site
									{
										OFFSET 0.45990 -0.00000 0.45990
									}
								}
							}
						}
					}
				}
				JOINT RightShoulder
				{
					OFFSET 0 0 0
					CHANNELS 3 Zrotation Yrotation Xrotation
					JOINT RightArm
					{
						OFFSET -3.65136 0.56074 0.01624
						CHANNELS 3 Zrotation Yrotation Xrotation
						JOINT RightForeArm
						{
							OFFSET -5.22819 -0.00000 0.00000
							CHANNELS 3 Zrotation Yrotation Xrotation
							JOINT RightHand
							{
								OFFSET -3.40764 -0.00000 0.00000
								CHANNELS 3 Zrotation Yrotation Xrotation
								JOINT RightFingerBase
								{
									OFFSET 0 0 0
									CHANNELS 3 Zrotation Yrotation Xrotation
									JOINT RightHandIndex1
									{
										OFFSET -0.58325 -0.00000 0.00000
										CHANNELS 3 Zrotation Yrotation Xrotation
										End Site
										{
											OFFSET -0.47024 -0.00000 0.00000
										}
									}
								}
								JOINT RThumb
								{
									OFFSET 0 0 0
									CHANNELS 3 Zrotation Yrotation Xrotation
									End Site
									{
										OFFSET -0.47742 -0.00000 0.47742
									}
								}
							}
						}
					}
				}
			}
		}
	}
}
MOTION
Frames: 9
Frame Time: .0083333
17.4395 16.9449 -6.4153 -56.5181 -78.6543 55.3244 0.0000 0.0000 0.0000 -12.3964 -11.4663 -29.4029 3.1107 10.8722 31.8499 0.1569 5.9346 -11.9104 0.9030 -6.0558 -16.9464 0.0000 0.0000 0.0000 35.1127 -13.6358 5.9516 -0.6494 -5.1547 14.3504 -0.2491 5.1678 -9.0440 -0.4080 -4.1006 11.3599 6.6183 3.7661 -8.4970 0.6964 4.2939 0.1139 -2.4072 2.2717 5.3243 3.5120 4.0627 -2.3529 2.2889 5.2881 -0.3534 0.1753 2.6419 0.3016 0.0000 0.0000 0.0000 -80.3527 19.9786 15.4081 11.1104 -18.4572 -1.8107 -0.0000 0.0000 -5.4774 15.4589 22.1013 5.9403 -7.1250 0.0000 -0.0000 -13.7289 52.3079 -2.5083 0.0000 0.0000 0.0000 78.6557 6.9529 42.4808 -20.2093 30.8937 -5.6384 0.0000 0.0000 0.1371 -9.1253 0.9170 -0.1473 7.1250 -0.0000 -0.0000 13.5254 -28.9281 5.4341
17.3452 16.9480 -6.4101 -56.3343 -78.7182 55.3418 0.0000 0.0000 0.0000 -12.6146 -11.2905 -28.7772 2.7040 10.1998 29.6262 0.1517 5.5521 -11.4199 0.8922 -6.0206 -16.8441 0.0000 0.0000 0.0000 34.9569 -13.8406 6.1496 -0.6292 -5.0756 14.1243 -0.2289 5.2440 -8.7228 -0.3991 -4.0561 11.2347 6.5918 3.8288 -8.6597 0.6071 4.3753 0.0009 -2.4682 2.3090 5.3094 3.3704 4.0012 -2.5167 2.3677 5.2043 -0.4526 0.2227 2.5993 0.2918 0.0000 0.0000 0.0000 -80.5178 20.5546 15.2249 11.0915 -18.4284 -1.8047 -0.0000 0.0000 -5.3839 15.2819 22.1122 5.8722 -7.1250 0.0000 -0.0000 -13.9072 52.2880 -2.5350 0.0000 0.0000 0.0000 78.6898 7.1445 42.9828 -20.3403 31.0502 -5.7058 0.0000 -0.0000 -0.0168 -9.2188 0.9261 -0.1503 7.1250 -0.0000 -0.0000 13.4528 -28.9203 5.4060
17.2502 16.9490 -6.4054 -56.1432 -78.8029 55.3372 0.0000 0.0000 0.0000 -12.8363 -11.1094 -28.1437 2.3472 9.5546 27.5461 0.1486 5.0619 -10.8680 0.8942 -6.0270 -16.8629 0.0000 0.0000 0.0000 34.7869 -14.0013 6.3619 -0.6132 -5.0117 13.9418 -0.2123 5.3172 -8.4538 -0.3928 -4.0242 11.1449 6.5337 3.8899 -8.8086 0.5191 4.4586 -0.1103 -2.5107 2.3463 5.2864 3.2221 3.9275 -2.6659 2.4545 5.1054 -0.5502 0.2730 2.5493 0.2800 0.0000 0.0000 0.0000 -80.6892 21.1543 15.1352 11.1015 -18.4437 -1.8079 -0.0000 0.0000 -5.3724 15.0631 22.1250 5.7879 -7.1250 0.0000 -0.0000 -14.1269 52.2628 -2.5675 0.0000 0.0000 0.0000 78.7217 7.3153 43.5002 -20.4607 31.1935 -5.7681 0.0000 -0.0000 -0.1161 -9.2901 0.9446 -0.1545 7.1250 -0.0000 -0.0000 13.3959 -28.9029 5.3877
17.1544 16.9485 -6.4008 -55.9202 -78.8957 55.2853 0.0000 0.0000 0.0000 -13.0484 -10.9457 -27.4939 2.0378 8.9444 25.6217 0.1499 4.4784 -10.3331 0.8931 -6.0236 -16.8530 0.0000 0.0000 0.0000 34.6094 -14.1227 6.6023 -0.5991 -4.9547 13.7794 -0.1983 5.3839 -8.2254 -0.3898 -4.0091 11.1022 6.4547 3.9476 -8.9493 0.4344 4.5399 -0.2202 -2.5387 2.3819 5.2579 3.0684 3.8412 -2.7860 2.5472 4.9919 -0.6507 0.3251 2.4917 0.2626 -0.0000 0.0000 0.0000 -80.8637 21.7754 15.1469 11.1387 -18.5005 -1.8197 -0.0000 0.0000 -5.4512 14.7956 22.1436 5.6855 -7.1250 0.0000 -0.0000 -14.3967 52.2349 -2.6083 -0.0000 0.0000 0.0000 78.7494 7.4616 44.0340 -20.5729 31.3264 -5.8263 0.0000 -0.0000 -0.1595 -9.2751 0.9602 -0.1568 7.1250 -0.0000 -0.0000 13.4054 -28.8874 5.3967
17.0577 16.9467 -6.3960 -55.7913 -78.9981 55.3278 0.0000 0.0000 0.0000 -13.2303 -10.7918 -26.8556 1.7729 8.3761 23.8624 0.1553 3.8359 -9.8637 0.8921 -6.0202 -16.8429 0.0000 0.0000 0.0000 34.4337 -14.1965 6.8693 -0.5850 -4.8972 13.6156 -0.1852 5.4529 -8.0088 -0.3899 -4.0094 11.1030 6.3726 4.0125 -9.0961 0.3554 4.6304 -0.3344 -2.5573 2.4217 5.2287 2.8923 3.7414 -2.8844 2.6614 4.8621 -0.7429 0.3868 2.4263 0.2435 0.0000 0.0000 0.0000 -81.0378 22.4129 15.2643 11.1998 -18.5938 -1.8391 -0.0000 0.0000 -5.6156 14.4864 22.1631 5.5668 -7.1250 0.0000 -0.0000 -14.7071 52.2009 -2.6542 0.0000 0.0000 0.0000 78.7736 7.5799 44.5789 -20.6854 31.4593 -5.8849 0.0000 -0.0000 -0.1584 -9.1776 0.9483 -0.1532 7.1250 -0.0000 -0.0000 13.4814 -28.8979 5.4255
16.9602 16.9436 -6.3908 -55.6823 -79.0898 55.4006 0.0000 0.0000 0.0000 -13.3738 -10.6708 -26.2467 1.5504 7.8591 22.2870 0.1648 3.1377 -9.4886 0.8890 -6.0099 -16.8130 0.0000 0.0000 0.0000 34.2663 -14.2575 7.1516 -0.5689 -4.8307 13.4263 -0.1715 5.5310 -7.7816 -0.3950 -4.0356 11.1768 6.3017 4.0792 -9.2616 0.2811 4.7202 -0.4570 -2.5762 2.4610 5.2013 2.6887 3.6247 -2.9605 2.8058 4.7116 -0.8208 0.4616 2.3510 0.2243 0.0000 0.0000 0.0000 -81.2082 23.0603 15.4770 11.2779 -18.7130 -1.8641 -0.0000 0.0000 -5.8398 14.1506 22.1844 5.4381 -7.1250 0.0000 -0.0000 -15.0440 52.1641 -2.7035 0.0000 0.0000 0.0000 78.7996 7.6683 45.1194 -20.8006 31.5948 -5.9451 0.0000 -0.0000 -0.1311 -8.9815 0.9132 -0.1443 7.1250 -0.0000 -0.0000 13.6357 -28.9300 5.4802
16.8612 16.9388 -6.3851 -55.6735 -79.1549 55.5746 0.0000 0.0000 0.0000 -13.4576 -10.5679 -25.6792 1.3683 7.4032 20.9156 0.1772 2.3840 -9.2002 0.8876 -6.0055 -16.8004 0.0000 0.0000 0.0000 34.1302 -14.3099 7.4676 -0.5498 -4.7501 13.1972 -0.1569 5.6135 -7.5368 -0.4094 -4.1072 11.3785 6.2655 4.1502 -9.4447 0.2175 4.8099 -0.5822 -2.6017 2.5009 5.1830 2.4457 3.4895 -3.0327 2.9890 4.5373 -0.8708 0.5549 2.2646 0.2120 0.0000 -0.0000 0.0000 -81.3766 23.6983 15.7584 11.3648 -18.8453 -1.8921 -0.0000 0.0000 -6.0908 13.7974 22.2085 5.3031 -7.1250 0.0000 -0.0000 -15.3985 52.1273 -2.7556 0.0000 -0.0000 0.0000 78.8285 7.7328 45.6428 -20.9174 31.7318 -6.0064 0.0000 -0.0000 -0.0914 -8.7303 0.8666 -0.1331 7.1250 -0.0000 -0.0000 13.8336 -28.9724 5.5497
16.7607 16.9324 -6.3785 -55.7981 -79.1922 55.8863 0.0000 0.0000 0.0000 -13.4878 -10.4580 -25.1840 1.2252 7.0202 19.7754 0.1901 1.5741 -8.9696 0.8913 -6.0177 -16.8358 0.0000 0.0000 0.0000 34.0202 -14.3736 7.8203 -0.5263 -4.6490 12.9100 -0.1397 5.7162 -7.2433 -0.4357 -4.2355 11.7401 6.2755 4.2271 -9.6502 0.1625 4.8999 -0.7104 -2.6421 2.5417 5.1772 2.1687 3.3362 -3.1033 3.2097 4.3395 -0.8910 0.6657 2.1675 0.2081 0.0000 0.0000 0.0000 -81.5369 24.3254 16.0958 11.4609 -18.9912 -1.9232 -0.0000 0.0000 -6.3632 13.4132 22.2267 5.1547 -7.1250 0.0000 -0.0000 -15.7800 52.0794 -2.8079 0.0000 0.0000 0.0000 78.8693 7.7747 46.1306 -21.0363 31.8707 -6.0691 0.0000 -0.0000 -0.0542 -8.4386 0.8265 -0.1226 7.1250 -0.0000 -0.0000 14.0616 -29.0078 5.6342
16.6583 16.9246 -6.3706 -55.9750 -79.1979 56.2487 0.0000 0.0000 0.0000 -13.4881 -10.3218 -24.7765 1.1197 6.7219 18.8940 0.2002 0.7192 -8.7439 0.8918 -6.0192 -16.8403 0.0000 0.0000 0.0000 33.9228 -14.4806 8.2146 -0.4973 -4.5213 12.5482 -0.1190 5.8437 -6.8828 -0.4726 -4.4089 12.2301 6.3291 4.3039 -9.8753 0.1123 4.9827 -0.8394 -2.7011 2.5798 5.1844 1.8698 3.1645 -3.1711 3.4570 4.1176 -0.8818 0.7890 2.0590 0.2131 0.0000 0.0000 0.0000 -81.6886 24.9366 16.4640 11.5606 -19.1425 -1.9558 -0.0000 0.0000 -6.6291 13.0150 22.2397 4.9997 -7.1250 0.0000 -0.0000 -16.1719 52.0244 -2.8585 0.0000 0.0000 0.0000 78.9244 7.7934 46.5915 -21.1521 32.0055 -6.1304 0.0000 -0.0000 -0.0245 -8.1669 0.8056 -0.1156 7.1250 -0.0000 -0.0000 14.2716 -29.0244 5.7174
